<?xml version="1.0" encoding="utf-8"?>
<svg version="1.1" xmlns:xlink="http://www.w3.org/1999/xlink" width="32px" height="24px" xmlns="http://www.w3.org/2000/svg">
  <g transform="matrix(1 0 0 1 -1294 -534 )">
    <path d="M 31.4765944819512 9.83903338626642  C 31.5918152741463 9.09883317073171  35.1050510673171 -0.597543855309569  21.5516201521951 0.209053058161351  C 21.1207076214634 0.279753236172608  20.1583141463415 0.62095848945591  20.1503219512195 1.35624045028143  C 20.1423297560976 2.09090760765478  20.9948305795122 2.57043931497186  21.4250770731707 2.60732636938086  C 23.0135258536585 2.60732636938086  30.6101073170732 2.22677493433396  29.2207974087805 8.99247548757974  C 29.02831872 9.7345200558349  28.8811291160976 10.8706413316323  29.8348643902439 11.1097924106567  C 30.701351555122 11.3108268571857  31.2361625912195 10.4753350748218  31.4765944819512 9.83903338626642  Z M 27.0202796956098 16.3299254129831  C 28.8751349697561 10.3954131332083  23.5276903960976 11.5327639870919  23.5276903960976 11.5327639870919  C 23.5276903960976 11.5327639870919  21.9352455180488 11.8506074296435  22.6885099082927 10.7569062664165  C 23.8713547863415 8.61807188532833  21.9459017678049 5.10826865831145  16.9547759141463 7.4407600750469  C 15.23512192 8.28670319909944  15.23512192 7.6872885649531  15.2923993287805 6.62924487804878  C 15.4469150907317 0.852117382964352  3.84624387121951 4.97117178236398  0.559453627317074 12.4826056381238  C -1.29340356682927 17.0406159849906  1.67436487804878 20.978309043152  6.2652149697561 22.6972457786116  C 17.4709385365854 26.3896399249531  25.6296377443902 20.2792993621013  27.0202796956098 16.3299254129831  Z M 21.4883485970732 14.089036857636  C 21.9838647258537 17.4144048126079  18.0850055180488 20.654932542439  12.7821840546341 21.3311951873921  C 7.47803054829268 22.0037691557223  2.77662176780488 19.852024305591  2.27910762146341 16.5278859287054  C 1.7842575297561 13.2019031990994  5.68178469463415 9.95891631309568  10.9859382009756 9.28634237358349  C 16.2900917073171 8.61315363061914  20.9908344507317 10.76305412803  21.4883485970732 14.089036857636  Z M 25.7322042068293 8.72012605958724  C 25.7914796643902 9.06993830183865  25.5250731707317 9.6681233867167  26.0565541463415 9.79108021553471  C 26.5900331707317 9.91403707317073  26.7978302439024 9.51012382739212  26.8564396643902 9.14125328330206  C 26.9110529873171 8.77238273921201  27.832153475122 3.77172773943715  21.9159310360976 4.34839533748593  C 21.4683681092683 4.39388938086304  21.1666627434146 4.64103264540338  21.2186120117073 5.00375532787993  C 21.2678972253659 5.36709281380863  21.5995733229268 5.57058638769231  21.851993475122 5.54292109688555  C 22.1044136273171 5.51587058071295  26.0558881092683 4.87649499016886  25.7322042068293 8.72012605958724  Z M 16.8249027434146 14.3976585365854  C 16.4019824390244 12.3713296714447  13.8198374087805 11.1251620358724  11.0538718595122 11.6145302814259  C 8.28923835317073 12.1038985269794  6.38776195121951 14.1431378611632  6.80868420682927 16.1700815009381  C 7.22960649365854 18.1970251407129  9.81374957268293 19.4419632270169  12.5797150907317 18.9519801780113  C 15.3450146029268 18.4632267070919  17.2444929873171 16.4233725982739  16.8249027434146 14.3976585365854  Z M 12.4545040546341 15.7249777206754  C 12.4545040546341 16.4762440525328  11.679927164878 17.083036097561  10.7255258536585 17.083036097561  C 9.77045853658537 17.083036097561  8.99588161560976 16.4774736306191  8.99588161560976 15.7249777206754  C 8.99588161560976 14.9755557415385  9.77045853658537 14.3669193437899  10.7255258536585 14.3669193437899  C 11.6805931707317 14.3669193437899  12.4545040546341 14.9755557415385  12.4545040546341 15.7249777206754  Z M 14.2780565853659 14.3656897368856  C 14.2780565853659 14.8544432366229  13.9144117073171 15.2503642680675  13.5580930185366 15.2503642680675  C 13.2017743297561 15.2503642680675  12.8394614634146 14.8538284331707  12.8394614634146 14.3656897368856  C 12.8394614634146 13.8781658440525  13.2017742985366 13.482859558424  13.5580930185366 13.482859558424  C 13.9144117385366 13.482859558424  14.2780565853659 13.8781658152345  14.2780565853659 14.3656897368856  Z " fill-rule="nonzero" fill="#d7d7d7" stroke="none" transform="matrix(1 0 0 1 1294 534 )" />
  </g>
</svg>