<?xml version="1.0" encoding="utf-8"?>
<svg version="1.1" xmlns:xlink="http://www.w3.org/1999/xlink" width="32px" height="24px" xmlns="http://www.w3.org/2000/svg">
  <g transform="matrix(1 0 0 1 -1396 -534 )">
    <path d="M 12.1355501612903 15.5100992970297  C 12.1355831612903 10.9948265346535  16.3463891612903 7.33092427722772  21.677913483871 7.33092427722772  C 22.0417813548387 7.33092427722772  22.4017870967742 7.3550277029703  22.7586898709677 7.392657  C 21.7875392580645 3.22762853465347  16.9527805806452 0.134700742574257  11.4339912258065 0.134700742574257  C 5.26418106451613 0.134700742574257  0.210203806451613 4.00671917821782  0.210203806451613 8.92402966336634  C 0.210203806451613 11.7622453960396  1.89166093548387 14.0930734752475  4.70146170967742 15.9014986930693  L 3.57882877419355 19.0105055643564  L 7.50261387096774 17.1984937128713  C 8.90652396774193 17.4539960495049  10.032953 17.7166412673267  11.4339582258065 17.7166412673267  C 11.7862066129032 17.7166412673267  12.1355501612903 17.7006837623762  12.4819228064516 17.6756380990099  C 12.2625391612903 16.9851191881188  12.1355501612903 16.2614694653465  12.1355501612903 15.5100992970297  Z M 13.9575963870968 5.81848788118812  C 13.9576293870968 5.04122094059406  14.8017579677419 4.52845336633663  15.6429486774194 4.52845336633663  C 16.4881005806452 4.52845336633663  17.0478820645161 5.04119055445545  17.0478820645161 5.81848788118812  C 17.0478820645161 6.59304962376238  16.4881005483871 7.11210902970297  15.6429486774194 7.11210902970297  C 14.8017249677419 7.11210902970297  13.9575963870968 6.59304962376238  13.9575963870968 5.81848788118812  Z M 9.1888244516129 5.81848785148515  C 9.18882441935484 6.59304959405941  8.62904293548387 7.112109  7.78781922580645 7.112109  C 6.94659551612903 7.112109  6.09768048387097 6.59304959405941  6.09768048387097 5.81848785148515  C 6.09768048387097 5.04119055445545  6.94659551612903 4.52845333663366  7.78781922580645 4.52845333663366  C 8.62904293548387 4.52845333663366  9.1888244516129 5.04119052475248  9.1888244516129 5.81848785148515  Z M 27.9903923225806 21.3368351881188  C 30.2431844193548 19.7804472475248  31.9218357096774 17.7166108811881  31.9218357096774 15.386725039604  C 31.9218357096774 11.2538851188119  27.4315680967742 7.88594126732673  22.388187 7.88594126732673  C 17.0478820645161 7.88594126732673  12.841829483871 11.2539155346535  12.841829483871 15.386725039604  C 12.841829483871 19.5249145247525  17.0478490322581 22.8858978712871  22.388187 22.8858978712871  C 23.5058024193548 22.8858978712871  24.6333208064516 22.6268697029703  25.7558546774194 22.3677199306931  L 28.8345209032258 23.9205212376238  L 27.9903923225806 21.3368351881188  Z M 20.6979492258065 13.0585413267327  C 20.6979162258065 13.5810961782178  20.1419308709677 14.0930430891089  19.2930158387097 14.0930430891089  C 18.7341916129032 14.0930430891089  18.1705479677419 13.5810961782178  18.1705479677419 13.0585413267327  C 18.1705479677419 12.5440412079208  18.7341916129032 12.0257416930693  19.2930158387097 12.0257416930693  C 20.1419638709677 12.0257416930693  20.6979492258065 12.5440412079208  20.6979492258065 13.0585413267327  Z M 26.8716545483871 13.0585413267327  C 26.8716545806452 13.5810961782178  26.3079118709677 14.0930430891089  25.4666881612903 14.0930430891089  C 24.9116930967742 14.0930430891089  24.3519115806452 13.5810961782178  24.3519115806452 13.0585413267327  C 24.3519115806452 12.5440412079208  24.9117260967742 12.0257416930693  25.4666881612903 12.0257416930693  C 26.3079118709677 12.0257416930693  26.8716545483871 12.5440412079208  26.8716545483871 13.0585413267327  Z " fill-rule="nonzero" fill="#d7d7d7" stroke="none" transform="matrix(1 0 0 1 1396 534 )" />
  </g>
</svg>