<?xml version="1.0" encoding="utf-8"?>
<svg version="1.1" xmlns:xlink="http://www.w3.org/1999/xlink" width="20px" height="24px" xmlns="http://www.w3.org/2000/svg">
  <g transform="matrix(1 0 0 1 -1496 -534 )">
    <path d="M 19.94844445 16.0211462105263  C 19.48764445 13.1033450526316  17.552711125 11.1915789473684  17.552711125 11.1915789473684  C 17.82933335 8.54250292105263  16.8152889 8.07242105263158  16.8152889 8.07242105263158  C 16.602666675 -0.123321631578947  10.135822225 0.0203976578947369  10 0.0241403421052631  C 9.864177775 0.0203976578947369  3.396622225 -0.123321657894737  3.1847111 8.07316957894737  C 3.1847111 8.07316957894737  2.17066665 8.54325144736842  2.447288875 11.1923274736842  C 2.447288875 11.1923274736842  0.512355549999999 13.1040935526316  0.0515555499999994 16.0218947368421  C 0.0515555499999994 16.0218947368421  -0.194488900000001 20.9517660789474  2.2631111 16.6259649210526  C 2.2631111 16.6259649210526  2.81635555 18.2690058684211  3.829688875 19.7451228157895  C 3.829688875 19.7451228157895  2.01706665 20.4158128684211  2.171377775 22.1599064473684  C 2.171377775 22.1599064473684  2.1095111 24.1046082105263  6.04195555 23.9713684473684  C 6.04195555 23.9713684473684  8.80604445 23.7370760526316  9.6359111 22.4623158157895  L 10.366933325 22.4623158157895  C 11.196088875 23.7370760526316  13.960888875 23.9713684473684  13.960888875 23.9713684473684  C 17.8919111 24.1053567631579  17.83075555 22.1599064473684  17.83075555 22.1599064473684  C 17.98364445 20.4165614210526  16.17244445 19.7451228157895  16.17244445 19.7451228157895  C 17.185777775 18.2690058684211  17.739022225 16.6259649210526  17.739022225 16.6259649210526  C 20.193777775 20.9517660789474  19.94844445 16.0211462105263  19.94844445 16.0211462105263  Z " fill-rule="nonzero" fill="#d7d7d7" stroke="none" transform="matrix(1 0 0 1 1496 534 )" />
  </g>
</svg>