<?xml version="1.0" encoding="utf-8"?>
<svg version="1.1" xmlns:xlink="http://www.w3.org/1999/xlink" width="16px" height="20px" xmlns="http://www.w3.org/2000/svg">
  <g transform="matrix(1 0 0 1 -1267 -248 )">
    <path d="M 3.416 5.08491228070175  C 3.416 7.79929824561404  5.46533333333333 10  7.996 10  C 10.524 10  12.576 7.79929824561404  12.576 5.08491228070175  C 12.576 2.37052631578947  10.524 0.171228070175439  7.996 0.171228070175439  C 5.46666666666667 0.171228070175439  3.416 2.37052631578947  3.416 5.08491228070175  Z M 15.8866666666667 18.1515789473684  C 16.3013333333333 16.0715789473684  15.4173333333333 14.3915789473684  14.3053333333333 13.0666666666667  C 13.2586666666667 11.7838596491228  12.9053333333333 11.3417543859649  10.9893333333333 11.2238596491228  L 5.00933333333333 11.2238596491228  C 3.092 11.3445614035088  2.74 11.7838596491228  1.696 13.0666666666667  C 0.583999999999998 14.3901754385965  -0.301333333333335 16.0715789473684  0.117333333333332 18.1515789473684  C 0.583999999999999 19.5143859649123  1.84 19.8273684210526  3.032 19.8273684210526  L 12.9706666666667 19.8273684210526  C 14.1613333333333 19.8273684210526  15.42 19.5115789473684  15.8866666666667 18.1515789473684  Z " fill-rule="nonzero" fill="#d7d7d7" stroke="none" transform="matrix(1 0 0 1 1267 248 )" />
  </g>
</svg>