<?xml version="1.0" encoding="utf-8"?>
<svg version="1.1" xmlns:xlink="http://www.w3.org/1999/xlink" width="16px" height="21px" xmlns="http://www.w3.org/2000/svg">
  <g transform="matrix(1 0 0 1 -1267 -309 )">
    <path d="M 15.848 9.00011538461538  C 15.8449218147665 7.89660560602575  14.9594013155012 7.00293142122176  13.8664 7.00026923076923  L 12.876 7.00026923076923  L 12.876 4.99961538461538  C 12.8746757450077 2.2389580409732  10.6583653689408 0.00133698821334605  7.924 0  C 5.18963463105916 0.00133698821334605  2.97332425499227 2.2389580409732  2.972 4.99961538461539  L 2.972 7.00026923076923  L 1.98 7.00026923076923  C 0.887623522320062 7.00381826181934  0.00307395539865709 7.89723394328098  0 9.00011538461538  L 0 18.9993461538462  C 0.00263683625774434 20.102857097381  0.887799838349315 20.9968922168315  1.9808 21  L 13.8664 21  C 14.9594013155012 20.9973378095475  15.8449218147665 20.1036636247435  15.848 19.0001538461538  L 15.848 9.00011538461538  Z M 9.9048 13.9997307692308  C 9.90216316374225 15.1032417127656  9.01700016165068 15.9972768322161  7.924 16.0003846153846  C 6.83099983834931 15.9972768322161  5.94583683625774 15.1032417127656  5.9432 13.9997307692308  C 5.94627615837079 12.896535235621  6.83131109051986 12.0029903522013  7.924 11.9998846153846  C 9.01668890948014 12.0029903522013  9.90172384162921 12.896535235621  9.9048 13.9997307692308  Z M 10.9944 4.99961538461538  L 10.9944 7.00026923076923  L 4.8536 7.00026923076923  L 4.8536 4.99961538461539  C 4.85492350346514 3.28812893350796  6.2288134198555 1.9010285371523  7.924 1.89969230769231  C 9.61918658014451 1.9010285371523  10.9930764965349 3.28812893350795  10.9944 4.99961538461538  Z " fill-rule="nonzero" fill="#d7d7d7" stroke="none" transform="matrix(1 0 0 1 1267 309 )" />
  </g>
</svg>