<?xml version="1.0" encoding="utf-8"?>
<svg version="1.1" xmlns:xlink="http://www.w3.org/1999/xlink" width="33px" height="30px" xmlns="http://www.w3.org/2000/svg">
  <g transform="matrix(1 0 0 1 -4 -5 )">
    <path d="M 28.44019921875 28.9955128205128  C 27.552873046875 29.8115384615385  26.42874609375 29.9041025641026  25.9647802734375 29.9041346153846  C 25.90151953125 29.9041346153846  25.850666015625 29.9024038461538  25.8142177734375 30  L 6.55062890625 30  C 5.260212890625 29.9005769230769  4.5174228515625 29.3600320512821  4.1215517578125 28.9065705128205  C 3.254044921875 27.9128846153846  3.32371875 26.565641025641  4 26.1918269230769  L 4 14.6684294871795  L 6 14.6684294871795  L 6 26.3323076923077  L 5.415609375 26.3926602564103  C 5.3910849609375 26.5978205128205  5.3887646484375 27.2348717948718  5.6827353515625 27.5660256410256  C 5.7449326171875 27.6360897435897  5.93419921875 27.8492948717949  6.5506611328125 27.8492948717949  L 25.8965244140625 27.8492948717949  L 25.9206943359375 27.8519230769231  C 25.990078125 27.854358974359  26.639830078125 27.8658333333333  27.0484951171875 27.4815064102564  C 27.3209384765625 27.2252884615385  27.4590615234375 26.8016346153846  27 26.2222756410256  L 27 14.6595833333333  L 29 14.6595833333333  L 29 26.2222756410256  C 29.5215615234375 27.6925  28.9335234375 28.541858974359  28.44019921875 28.9955128205128  Z M 5.4253095703125 14.6053846153846  C 5.4253095703125 15.1718269230769  4.963599609375 15.6310256410256  4.3940595703125 15.6310256410256  L 1.224609375 15.6310256410256  C 0.7962861328125 15.6310256410256  0.4125966796875 15.3677564102564  0.26051953125 14.9695192307692  C 0.108474609375 14.5712820512821  0.219720703125 14.1210576923077  0.540052734375 13.8383012820513  L 15.7580478515625 0.405929487179488  C 16.1454111328125 0.0640064102564109  16.7276484375 0.0608653846153853  17.11875 0.398653846153847  L 32.5482158203125 13.7252884615385  C 32.86903125 14.0024038461538  32.9861103515625 14.446858974359  32.84312109375 14.8448076923077  C 32.7001318359375 15.2427564102564  32.3263681640625 15.5127564102564  31.90158984375 15.5249038461538  L 28.519798828125 15.6214423076923  C 28.5097119140625 15.6217628205128  28.499689453125 15.621891025641  28.489634765625 15.621891025641  C 27.9338232421875 15.621891025641  27.4754326171875 15.181858974359  27.4593515625 14.6256730769231  C 27.4430126953125 14.0594551282051  27.8912841796875 13.5872756410256  28.4605986328125 13.5710256410256  L 29.1995859375 13.5499358974359  L 16.449984375 2.53778846153846  L 3.940212890625 13.5797435897436  L 4.3940595703125 13.5797435897436  C 4.963599609375 13.5797435897436  5.4253095703125 14.0389423076923  5.4253095703125 14.6053846153846  Z M 13.8573896484375 28.0192628205128  C 13.857421875 28.4972115384615  13.4678671875 28.8846474358974  12.9873046875 28.8846474358974  C 12.5067421875 28.8846474358974  12.1171875 28.4972115384615  12.1171875 28.0192628205128  L 12.1171875 20.780608974359  C 12.117251953125 20.6246474358974  12.156955078125 19.9825320512821  12.7623955078125 19.3705128205128  C 13.4971611328125 18.6277884615385  14.7429755859375 18.2511858974359  16.465259765625 18.2511858974359  C 18.1616015625 18.2511858974359  19.393880859375 18.6329487179487  20.127873046875 19.3858974358974  C 20.7474287109375 20.0214102564103  20.787357421875 20.6905769230769  20.7861328125 20.8680769230769  L 20.7861328125 27.9914743589744  C 20.7861328125 28.4694230769231  20.396578125 28.856858974359  19.916015625 28.856858974359  C 19.435453125 28.856858974359  19.0458984375 28.4694230769231  19.0458984375 27.9914743589744  L 19.0458984375 20.8782692307692  C 19.0401298828125 20.8408653846154  19.00374609375 20.6826282051282  18.7875380859375 20.5083653846154  C 18.543615234375 20.3117628205128  17.917517578125 19.9819551282051  16.4652275390625 19.9819551282051  C 14.7806806640625 19.9819551282051  14.1820400390625 20.4032692307692  14.0028603515625 20.584358974359  C 13.9148818359375 20.6733012820513  13.8779501953125 20.7489743589744  13.86244921875 20.7967628205128  C 13.8600966796875 20.8039743589744  13.8584853515625 20.8099358974359  13.8573896484375 20.814358974359  L 13.8573896484375 28.0192628205128  Z M 13.5029296875 19.9679487179487  L 13.212890625 21.9871794871795  L 12.9228515625 28.5897435897436  L 5.2529296875 28.1730769230769  L 4.705078125 20.0320512820513  L 4.8662109375 14.7115384615385  L 2.578125 13.974358974359  L 16.4033203125 1.50641025641026  L 30.03515625 13.3333333333333  L 28.6494140625 14.6474358974359  L 28.0693359375 26.5064102564103  L 27.521484375 28.3333333333333  L 20.302734375 28.5897435897436  L 20.173828125 23.8141025641026  L 19.72265625 20.6089743589744  L 18.8203125 19.8717948717949  L 17.0478515625 19.5833333333333  L 14.8564453125 19.775641025641  L 13.5029296875 19.9679487179487  Z " fill-rule="nonzero" fill="#f59a23" stroke="none" transform="matrix(1 0 0 1 4 5 )" />
  </g>
</svg>