<?xml version="1.0" encoding="utf-8"?>
<svg version="1.1" xmlns:xlink="http://www.w3.org/1999/xlink" width="11px" height="11px" xmlns="http://www.w3.org/2000/svg">
  <g transform="matrix(1 0 0 1 -1401 -535 )">
    <path d="M 1406.5 536  C 1409.02 536  1411 537.98  1411 540.5  C 1411 543.02  1409.02 545  1406.5 545  C 1403.98 545  1402 543.02  1402 540.5  C 1402 537.98  1403.98 536  1406.5 536  Z " fill-rule="nonzero" fill="#ffffff" stroke="none" />
    <path d="M 1406.5 536  C 1409.02 536  1411 537.98  1411 540.5  C 1411 543.02  1409.02 545  1406.5 545  C 1403.98 545  1402 543.02  1402 540.5  C 1402 537.98  1403.98 536  1406.5 536  Z " stroke-width="2" stroke="#aaaaaa" fill="none" />
  </g>
</svg>